<mxfile host="app.diagrams.net" modified="2023-01-15T13:48:11.782Z" agent="5.0 (Macintosh)" etag="swBiMBpLRaYfGIv1AfKX" version="20.6.2" type="github">
  <diagram id="YbkainP55hzanAraKQav" name="Page-1">
    <mxGraphModel dx="1018" dy="684" grid="1" gridSize="10" guides="1" tooltips="1" connect="1" arrows="1" fold="1" page="1" pageScale="1" pageWidth="827" pageHeight="1169" math="0" shadow="0">
      <root>
        <mxCell id="0" />
        <mxCell id="1" parent="0" />
        <mxCell id="5fgYvhCfNTWPp-rmczzZ-32" style="edgeStyle=entityRelationEdgeStyle;rounded=0;orthogonalLoop=1;jettySize=auto;html=1;fontColor=#000000;" parent="1" source="5fgYvhCfNTWPp-rmczzZ-1" target="5fgYvhCfNTWPp-rmczzZ-3" edge="1">
          <mxGeometry relative="1" as="geometry" />
        </mxCell>
        <mxCell id="5fgYvhCfNTWPp-rmczzZ-1" value="s" style="rounded=1;whiteSpace=wrap;html=1;fontColor=#000000;" parent="1" vertex="1">
          <mxGeometry x="210" width="120" height="60" as="geometry" />
        </mxCell>
        <mxCell id="5fgYvhCfNTWPp-rmczzZ-34" style="edgeStyle=entityRelationEdgeStyle;rounded=0;orthogonalLoop=1;jettySize=auto;html=1;fontColor=#000000;" parent="1" source="5fgYvhCfNTWPp-rmczzZ-2" target="5fgYvhCfNTWPp-rmczzZ-3" edge="1">
          <mxGeometry relative="1" as="geometry" />
        </mxCell>
        <mxCell id="5fgYvhCfNTWPp-rmczzZ-2" value="ss" style="rounded=1;whiteSpace=wrap;html=1;" parent="1" vertex="1">
          <mxGeometry x="210" y="80" width="120" height="60" as="geometry" />
        </mxCell>
        <mxCell id="5fgYvhCfNTWPp-rmczzZ-3" value="s" style="shape=parallelogram;perimeter=parallelogramPerimeter;whiteSpace=wrap;html=1;fixedSize=1;" parent="1" vertex="1">
          <mxGeometry x="640" y="80" width="120" height="60" as="geometry" />
        </mxCell>
        <mxCell id="5fgYvhCfNTWPp-rmczzZ-4" value="&lt;span class=&quot;IPA&quot; lang=&quot;und-fonipa&quot;&gt;&lt;a title=&quot;Voiceless postalveolar fricative&quot; href=&quot;https://en.wikipedia.org/wiki/Voiceless_postalveolar_fricative&quot;&gt;ʃ&lt;/a&gt;&lt;/span&gt;" style="shape=parallelogram;perimeter=parallelogramPerimeter;whiteSpace=wrap;html=1;fixedSize=1;" parent="1" vertex="1">
          <mxGeometry x="640" y="710" width="120" height="60" as="geometry" />
        </mxCell>
        <mxCell id="5fgYvhCfNTWPp-rmczzZ-6" value="z" style="shape=parallelogram;perimeter=parallelogramPerimeter;whiteSpace=wrap;html=1;fixedSize=1;" parent="1" vertex="1">
          <mxGeometry x="640" y="160" width="120" height="60" as="geometry" />
        </mxCell>
        <mxCell id="5fgYvhCfNTWPp-rmczzZ-10" value="&lt;span style=&quot;font-size: 120%;&quot;&gt;&lt;span class=&quot;IPA&quot; title=&quot;Representation in the International Phonetic Alphabet (IPA)&quot; lang=&quot;und-Latn-fonipa&quot;&gt;dʒ&lt;/span&gt;&lt;/span&gt;" style="shape=parallelogram;perimeter=parallelogramPerimeter;whiteSpace=wrap;html=1;fixedSize=1;" parent="1" vertex="1">
          <mxGeometry x="640" y="470" width="120" height="60" as="geometry" />
        </mxCell>
        <mxCell id="5fgYvhCfNTWPp-rmczzZ-11" value="dz" style="shape=parallelogram;perimeter=parallelogramPerimeter;whiteSpace=wrap;html=1;fixedSize=1;" parent="1" vertex="1">
          <mxGeometry x="640" y="240" width="120" height="60" as="geometry" />
        </mxCell>
        <mxCell id="5fgYvhCfNTWPp-rmczzZ-12" value="ts" style="shape=parallelogram;perimeter=parallelogramPerimeter;whiteSpace=wrap;html=1;fixedSize=1;" parent="1" vertex="1">
          <mxGeometry x="640" y="550" width="120" height="60" as="geometry" />
        </mxCell>
        <mxCell id="5fgYvhCfNTWPp-rmczzZ-43" style="edgeStyle=entityRelationEdgeStyle;rounded=0;orthogonalLoop=1;jettySize=auto;html=1;fontColor=#000000;" parent="1" source="5fgYvhCfNTWPp-rmczzZ-14" target="5fgYvhCfNTWPp-rmczzZ-12" edge="1">
          <mxGeometry relative="1" as="geometry" />
        </mxCell>
        <mxCell id="5fgYvhCfNTWPp-rmczzZ-14" value="c[ie]" style="rounded=1;whiteSpace=wrap;html=1;" parent="1" vertex="1">
          <mxGeometry x="210" y="470" width="120" height="60" as="geometry" />
        </mxCell>
        <mxCell id="5fgYvhCfNTWPp-rmczzZ-36" style="edgeStyle=entityRelationEdgeStyle;rounded=0;orthogonalLoop=1;jettySize=auto;html=1;fontColor=#000000;" parent="1" source="5fgYvhCfNTWPp-rmczzZ-15" target="5fgYvhCfNTWPp-rmczzZ-11" edge="1">
          <mxGeometry relative="1" as="geometry" />
        </mxCell>
        <mxCell id="5fgYvhCfNTWPp-rmczzZ-15" value="z" style="rounded=1;whiteSpace=wrap;html=1;" parent="1" vertex="1">
          <mxGeometry x="210" y="240" width="120" height="60" as="geometry" />
        </mxCell>
        <mxCell id="5fgYvhCfNTWPp-rmczzZ-37" style="edgeStyle=entityRelationEdgeStyle;rounded=0;orthogonalLoop=1;jettySize=auto;html=1;fontColor=#000000;" parent="1" source="5fgYvhCfNTWPp-rmczzZ-16" target="5fgYvhCfNTWPp-rmczzZ-12" edge="1">
          <mxGeometry relative="1" as="geometry" />
        </mxCell>
        <mxCell id="5fgYvhCfNTWPp-rmczzZ-16" value="zz" style="rounded=1;whiteSpace=wrap;html=1;" parent="1" vertex="1">
          <mxGeometry x="210" y="550" width="120" height="60" as="geometry" />
        </mxCell>
        <mxCell id="5fgYvhCfNTWPp-rmczzZ-33" style="edgeStyle=entityRelationEdgeStyle;rounded=0;orthogonalLoop=1;jettySize=auto;html=1;fontColor=#000000;" parent="1" source="5fgYvhCfNTWPp-rmczzZ-17" target="5fgYvhCfNTWPp-rmczzZ-6" edge="1">
          <mxGeometry relative="1" as="geometry" />
        </mxCell>
        <mxCell id="5fgYvhCfNTWPp-rmczzZ-17" value="[aeiou]s[aeiou]" style="rounded=1;whiteSpace=wrap;html=1;" parent="1" vertex="1">
          <mxGeometry x="210" y="160" width="120" height="60" as="geometry" />
        </mxCell>
        <mxCell id="5fgYvhCfNTWPp-rmczzZ-35" style="edgeStyle=entityRelationEdgeStyle;rounded=0;orthogonalLoop=1;jettySize=auto;html=1;fontColor=#000000;" parent="1" source="5fgYvhCfNTWPp-rmczzZ-18" target="5fgYvhCfNTWPp-rmczzZ-29" edge="1">
          <mxGeometry relative="1" as="geometry" />
        </mxCell>
        <mxCell id="5fgYvhCfNTWPp-rmczzZ-18" value="g[ie]" style="rounded=1;whiteSpace=wrap;html=1;" parent="1" vertex="1">
          <mxGeometry x="210" y="320" width="120" height="60" as="geometry" />
        </mxCell>
        <mxCell id="5fgYvhCfNTWPp-rmczzZ-38" style="edgeStyle=entityRelationEdgeStyle;rounded=0;orthogonalLoop=1;jettySize=auto;html=1;fontColor=#000000;" parent="1" source="5fgYvhCfNTWPp-rmczzZ-19" target="5fgYvhCfNTWPp-rmczzZ-4" edge="1">
          <mxGeometry relative="1" as="geometry" />
        </mxCell>
        <mxCell id="5fgYvhCfNTWPp-rmczzZ-19" value="ch" style="rounded=1;whiteSpace=wrap;html=1;fontColor=#000000;" parent="1" vertex="1">
          <mxGeometry x="210" y="710" width="120" height="60" as="geometry" />
        </mxCell>
        <mxCell id="5fgYvhCfNTWPp-rmczzZ-39" style="edgeStyle=entityRelationEdgeStyle;rounded=0;orthogonalLoop=1;jettySize=auto;html=1;fontColor=#000000;" parent="1" source="5fgYvhCfNTWPp-rmczzZ-20" target="5fgYvhCfNTWPp-rmczzZ-29" edge="1">
          <mxGeometry relative="1" as="geometry" />
        </mxCell>
        <mxCell id="5fgYvhCfNTWPp-rmczzZ-20" value="j" style="rounded=1;whiteSpace=wrap;html=1;fontColor=#000000;" parent="1" vertex="1">
          <mxGeometry x="210" y="390" width="120" height="60" as="geometry" />
        </mxCell>
        <mxCell id="5fgYvhCfNTWPp-rmczzZ-42" style="edgeStyle=entityRelationEdgeStyle;rounded=0;orthogonalLoop=1;jettySize=auto;html=1;fontColor=#000000;" parent="1" source="5fgYvhCfNTWPp-rmczzZ-23" target="5fgYvhCfNTWPp-rmczzZ-12" edge="1">
          <mxGeometry relative="1" as="geometry" />
        </mxCell>
        <mxCell id="5fgYvhCfNTWPp-rmczzZ-23" value="[^s]ti[aoue]" style="rounded=1;whiteSpace=wrap;html=1;fontColor=#000000;" parent="1" vertex="1">
          <mxGeometry x="210" y="630" width="120" height="60" as="geometry" />
        </mxCell>
        <mxCell id="5fgYvhCfNTWPp-rmczzZ-24" value="sts" style="shape=parallelogram;perimeter=parallelogramPerimeter;whiteSpace=wrap;html=1;fixedSize=1;fontColor=#000000;" parent="1" vertex="1">
          <mxGeometry x="640" y="800" width="120" height="60" as="geometry" />
        </mxCell>
        <mxCell id="5fgYvhCfNTWPp-rmczzZ-40" style="edgeStyle=entityRelationEdgeStyle;rounded=0;orthogonalLoop=1;jettySize=auto;html=1;fontColor=#000000;" parent="1" source="5fgYvhCfNTWPp-rmczzZ-25" target="5fgYvhCfNTWPp-rmczzZ-24" edge="1">
          <mxGeometry relative="1" as="geometry" />
        </mxCell>
        <mxCell id="5fgYvhCfNTWPp-rmczzZ-25" value="sc[ie]" style="rounded=1;whiteSpace=wrap;html=1;fontColor=#000000;" parent="1" vertex="1">
          <mxGeometry x="210" y="800" width="120" height="60" as="geometry" />
        </mxCell>
        <mxCell id="5fgYvhCfNTWPp-rmczzZ-41" style="edgeStyle=entityRelationEdgeStyle;rounded=0;orthogonalLoop=1;jettySize=auto;html=1;fontColor=#000000;" parent="1" source="5fgYvhCfNTWPp-rmczzZ-26" target="5fgYvhCfNTWPp-rmczzZ-27" edge="1">
          <mxGeometry relative="1" as="geometry" />
        </mxCell>
        <mxCell id="5fgYvhCfNTWPp-rmczzZ-26" value="xc[ie]" style="rounded=1;whiteSpace=wrap;html=1;fontColor=#000000;" parent="1" vertex="1">
          <mxGeometry x="210" y="880" width="120" height="60" as="geometry" />
        </mxCell>
        <mxCell id="5fgYvhCfNTWPp-rmczzZ-27" value="ksts" style="shape=parallelogram;perimeter=parallelogramPerimeter;whiteSpace=wrap;html=1;fixedSize=1;fontColor=#000000;" parent="1" vertex="1">
          <mxGeometry x="640" y="880" width="120" height="60" as="geometry" />
        </mxCell>
        <mxCell id="5fgYvhCfNTWPp-rmczzZ-29" value="&lt;span style=&quot;font-size: 120%;&quot;&gt;&lt;span class=&quot;IPA&quot; title=&quot;Representation in the International Phonetic Alphabet (IPA)&quot; lang=&quot;und-Latn-fonipa&quot;&gt;ʒ&lt;/span&gt;&lt;/span&gt;" style="shape=parallelogram;perimeter=parallelogramPerimeter;whiteSpace=wrap;html=1;fixedSize=1;" parent="1" vertex="1">
          <mxGeometry x="640" y="320" width="120" height="60" as="geometry" />
        </mxCell>
        <mxCell id="HDc2UItaf2_tcFTCwjuI-6" value="&lt;span class=&quot;IPA&quot; lang=&quot;und-fonipa&quot;&gt;&lt;a href=&quot;https://en.wikipedia.org/wiki/Voiceless_postalveolar_fricative&quot; title=&quot;Voiceless postalveolar fricative&quot;&gt;ʃ&lt;/a&gt;&lt;/span&gt;" style="shape=parallelogram;perimeter=parallelogramPerimeter;whiteSpace=wrap;html=1;fixedSize=1;" parent="1" vertex="1">
          <mxGeometry x="640" y="1280" width="120" height="60" as="geometry" />
        </mxCell>
        <mxCell id="HDc2UItaf2_tcFTCwjuI-8" value="&lt;span style=&quot;font-size: 120%;&quot;&gt;&lt;span class=&quot;IPA&quot; title=&quot;Representation in the International Phonetic Alphabet (IPA)&quot; lang=&quot;und-Latn-fonipa&quot;&gt;tʃ&lt;/span&gt;&lt;/span&gt;" style="shape=parallelogram;perimeter=parallelogramPerimeter;whiteSpace=wrap;html=1;fixedSize=1;" parent="1" vertex="1">
          <mxGeometry x="640" y="960" width="120" height="60" as="geometry" />
        </mxCell>
        <mxCell id="HDc2UItaf2_tcFTCwjuI-9" value="&lt;span style=&quot;font-size: 120%;&quot;&gt;&lt;span class=&quot;IPA&quot; title=&quot;Representation in the International Phonetic Alphabet (IPA)&quot; lang=&quot;und-Latn-fonipa&quot;&gt;dʒ&lt;/span&gt;&lt;/span&gt;" style="shape=parallelogram;perimeter=parallelogramPerimeter;whiteSpace=wrap;html=1;fixedSize=1;" parent="1" vertex="1">
          <mxGeometry x="640" y="1120" width="120" height="60" as="geometry" />
        </mxCell>
        <mxCell id="HDc2UItaf2_tcFTCwjuI-22" style="edgeStyle=entityRelationEdgeStyle;rounded=0;orthogonalLoop=1;jettySize=auto;html=1;fontColor=#000000;" parent="1" source="HDc2UItaf2_tcFTCwjuI-23" target="HDc2UItaf2_tcFTCwjuI-6" edge="1">
          <mxGeometry relative="1" as="geometry" />
        </mxCell>
        <mxCell id="HDc2UItaf2_tcFTCwjuI-23" value="ch" style="rounded=1;whiteSpace=wrap;html=1;fontColor=#000000;" parent="1" vertex="1">
          <mxGeometry x="210" y="1280" width="120" height="60" as="geometry" />
        </mxCell>
        <mxCell id="HDc2UItaf2_tcFTCwjuI-35" style="edgeStyle=entityRelationEdgeStyle;rounded=0;orthogonalLoop=1;jettySize=auto;html=1;fontColor=#000000;" parent="1" source="HDc2UItaf2_tcFTCwjuI-36" target="HDc2UItaf2_tcFTCwjuI-8" edge="1">
          <mxGeometry relative="1" as="geometry" />
        </mxCell>
        <mxCell id="HDc2UItaf2_tcFTCwjuI-36" value="tch" style="rounded=1;whiteSpace=wrap;html=1;fontColor=#000000;" parent="1" vertex="1">
          <mxGeometry x="210" y="960" width="120" height="60" as="geometry" />
        </mxCell>
        <mxCell id="HDc2UItaf2_tcFTCwjuI-37" style="edgeStyle=entityRelationEdgeStyle;rounded=0;orthogonalLoop=1;jettySize=auto;html=1;fontColor=#000000;" parent="1" source="HDc2UItaf2_tcFTCwjuI-38" target="HDc2UItaf2_tcFTCwjuI-39" edge="1">
          <mxGeometry relative="1" as="geometry" />
        </mxCell>
        <mxCell id="HDc2UItaf2_tcFTCwjuI-38" value="x" style="rounded=1;whiteSpace=wrap;html=1;fontColor=#000000;" parent="1" vertex="1">
          <mxGeometry x="210" y="1040" width="120" height="60" as="geometry" />
        </mxCell>
        <mxCell id="HDc2UItaf2_tcFTCwjuI-39" value="ks" style="shape=parallelogram;perimeter=parallelogramPerimeter;whiteSpace=wrap;html=1;fixedSize=1;" parent="1" vertex="1">
          <mxGeometry x="640" y="1040" width="120" height="60" as="geometry" />
        </mxCell>
        <mxCell id="HDc2UItaf2_tcFTCwjuI-40" style="edgeStyle=entityRelationEdgeStyle;rounded=0;orthogonalLoop=1;jettySize=auto;html=1;fontColor=#000000;" parent="1" source="HDc2UItaf2_tcFTCwjuI-41" target="HDc2UItaf2_tcFTCwjuI-9" edge="1">
          <mxGeometry relative="1" as="geometry" />
        </mxCell>
        <mxCell id="HDc2UItaf2_tcFTCwjuI-41" value="dj" style="rounded=1;whiteSpace=wrap;html=1;fontColor=#000000;" parent="1" vertex="1">
          <mxGeometry x="210" y="1120" width="120" height="60" as="geometry" />
        </mxCell>
        <mxCell id="HDc2UItaf2_tcFTCwjuI-42" style="edgeStyle=entityRelationEdgeStyle;rounded=0;orthogonalLoop=1;jettySize=auto;html=1;fontColor=#000000;" parent="1" source="HDc2UItaf2_tcFTCwjuI-43" target="HDc2UItaf2_tcFTCwjuI-9" edge="1">
          <mxGeometry relative="1" as="geometry" />
        </mxCell>
        <mxCell id="HDc2UItaf2_tcFTCwjuI-43" value="dg[ie]" style="rounded=1;whiteSpace=wrap;html=1;fontColor=#000000;" parent="1" vertex="1">
          <mxGeometry x="210" y="1200" width="120" height="60" as="geometry" />
        </mxCell>
        <mxCell id="HDc2UItaf2_tcFTCwjuI-44" style="edgeStyle=entityRelationEdgeStyle;rounded=0;orthogonalLoop=1;jettySize=auto;html=1;fontColor=#000000;" parent="1" source="HDc2UItaf2_tcFTCwjuI-45" target="HDc2UItaf2_tcFTCwjuI-6" edge="1">
          <mxGeometry relative="1" as="geometry" />
        </mxCell>
        <mxCell id="HDc2UItaf2_tcFTCwjuI-45" value="sh" style="rounded=1;whiteSpace=wrap;html=1;fontColor=#000000;" parent="1" vertex="1">
          <mxGeometry x="210" y="1360" width="120" height="60" as="geometry" />
        </mxCell>
        <mxCell id="HDc2UItaf2_tcFTCwjuI-46" style="edgeStyle=entityRelationEdgeStyle;rounded=0;orthogonalLoop=1;jettySize=auto;html=1;fontColor=#000000;" parent="1" source="HDc2UItaf2_tcFTCwjuI-47" target="HDc2UItaf2_tcFTCwjuI-48" edge="1">
          <mxGeometry relative="1" as="geometry" />
        </mxCell>
        <mxCell id="HDc2UItaf2_tcFTCwjuI-47" value="cc[ie]" style="rounded=1;whiteSpace=wrap;html=1;fontColor=#000000;" parent="1" vertex="1">
          <mxGeometry x="210" y="1440" width="120" height="60" as="geometry" />
        </mxCell>
        <mxCell id="HDc2UItaf2_tcFTCwjuI-48" value="kts" style="shape=parallelogram;perimeter=parallelogramPerimeter;whiteSpace=wrap;html=1;fixedSize=1;fontColor=#000000;" parent="1" vertex="1">
          <mxGeometry x="640" y="1440" width="120" height="60" as="geometry" />
        </mxCell>
        <mxCell id="HDc2UItaf2_tcFTCwjuI-49" style="edgeStyle=entityRelationEdgeStyle;rounded=0;orthogonalLoop=1;jettySize=auto;html=1;fontColor=#000000;" parent="1" source="HDc2UItaf2_tcFTCwjuI-50" target="HDc2UItaf2_tcFTCwjuI-51" edge="1">
          <mxGeometry relative="1" as="geometry" />
        </mxCell>
        <mxCell id="HDc2UItaf2_tcFTCwjuI-50" value="gg[ie]" style="rounded=1;whiteSpace=wrap;html=1;fontColor=#000000;" parent="1" vertex="1">
          <mxGeometry x="210" y="1520" width="120" height="60" as="geometry" />
        </mxCell>
        <mxCell id="HDc2UItaf2_tcFTCwjuI-51" value="g&lt;span style=&quot;font-size: 120%;&quot;&gt;&lt;span class=&quot;IPA&quot; title=&quot;Representation in the International Phonetic Alphabet (IPA)&quot; lang=&quot;und-Latn-fonipa&quot;&gt;ʒ&lt;/span&gt;&lt;/span&gt;" style="shape=parallelogram;perimeter=parallelogramPerimeter;whiteSpace=wrap;html=1;fixedSize=1;fontColor=#000000;" parent="1" vertex="1">
          <mxGeometry x="640" y="1520" width="120" height="60" as="geometry" />
        </mxCell>
      </root>
    </mxGraphModel>
  </diagram>
</mxfile>
